<?xml version="1.0" encoding="UTF-8" standalone="no"?>
<svg
   xmlns:dc="http://purl.org/dc/elements/1.1/"
   xmlns:cc="http://creativecommons.org/ns#"
   xmlns:rdf="http://www.w3.org/1999/02/22-rdf-syntax-ns#"
   xmlns:svg="http://www.w3.org/2000/svg"
   xmlns="http://www.w3.org/2000/svg"
   xmlns:sodipodi="http://sodipodi.sourceforge.net/DTD/sodipodi-0.dtd"
   xmlns:inkscape="http://www.inkscape.org/namespaces/inkscape"
   version="1.1"
   x="0px"
   y="0px"
   viewBox="0 0 100 95.861"
   xml:space="preserve"
   id="svg2"
   inkscape:version="0.91 r13725"
   sodipodi:docname="noun_958505_cc.svg"
   width="100"
   height="95.861"><metadata
     id="metadata16"><rdf:RDF><cc:Work
         rdf:about=""><dc:format>image/svg+xml</dc:format><dc:type
           rdf:resource="http://purl.org/dc/dcmitype/StillImage" /><dc:title></dc:title></cc:Work></rdf:RDF></metadata><defs
     id="defs14" /><sodipodi:namedview
     pagecolor="#ffffff"
     bordercolor="#666666"
     borderopacity="1"
     objecttolerance="10"
     gridtolerance="10"
     guidetolerance="10"
     inkscape:pageopacity="0"
     inkscape:pageshadow="2"
     inkscape:window-width="732"
     inkscape:window-height="480"
     id="namedview12"
     showgrid="false"
     fit-margin-top="0"
     fit-margin-left="0"
     fit-margin-right="0"
     fit-margin-bottom="0"
     inkscape:zoom="1.888"
     inkscape:cx="50"
     inkscape:cy="35.431"
     inkscape:window-x="0"
     inkscape:window-y="0"
     inkscape:window-maximized="0"
     inkscape:current-layer="svg2" /><g
     id="g4"
     transform="translate(0,-2.07)"><path
       d="M 29.716,38.498 C 13.305,38.498 0,51.802 0,68.214 c 0,16.412 13.305,29.717 29.716,29.717 16.412,0 29.716,-13.305 29.716,-29.717 0,-16.412 -13.304,-29.716 -29.716,-29.716 z m -1.463,39.94 c 0.226,3.633 -0.105,7.183 -1.302,10.609 C 25.4,88.044 23.007,86.281 20.194,84.3 17.264,85.788 14.793,86.798 13.005,86.792 12.316,84.053 12.256,81.093 12.582,77.948 9.831,75.41 7.05,73.296 4.754,72.165 c 3.556,-0.926 7.15,-1.936 10.739,-2.813 1.717,-3.319 3.417,-6.907 4.485,-10.498 1.4,3.191 3.335,6.644 5.222,10.081 3.705,0.609 7.527,1.442 11.44,2.283 -2.415,1.936 -5.432,4.527 -8.387,7.22 z M 61.684,21.952 c -8.85,2.439 -16.176,8.551 -20.238,16.593 -3.631,-1.437 -7.588,-2.226 -11.729,-2.226 -8.724,0 -16.63,3.503 -22.389,9.179 -1.002,-2.979 -1.546,-6.168 -1.546,-9.485 0,-6.052 1.81,-11.681 4.917,-16.376 -2.17,-1.85 -4.291,-3.361 -6.107,-4.255 3.556,-0.927 7.15,-1.937 10.739,-2.814 1.716,-3.319 3.417,-6.907 4.485,-10.498 0.961,2.191 2.175,4.505 3.452,6.854 3.73,-1.688 7.872,-2.626 12.231,-2.626 11.324,-0.001 21.169,6.334 26.185,15.654 z M 25.49,75.772 c 0,3.155 -2.432,5.712 -5.431,5.712 -3,0 -5.431,-2.557 -5.431,-5.712 0,-3.153 2.432,-5.71 5.431,-5.71 2.999,0.001 5.431,2.557 5.431,5.71 z M 70.283,23.368 c -11.553,0 -21.565,6.593 -26.482,16.222 10.551,5.202 17.81,16.064 17.81,28.624 0,4.403 -0.893,8.598 -2.506,12.413 3.451,1.401 7.225,2.174 11.178,2.174 C 86.695,82.801 100,69.496 100,53.084 100,36.673 86.695,23.368 70.283,23.368 Z m 19.344,37.031 c 0.847,2.894 1.301,5.68 1.127,8.368 -1.676,0.313 -4.168,-0.208 -7.172,-1.1 -2.297,2.344 -4.238,4.41 -5.52,5.617 -1.713,-3.008 -2.636,-6.279 -3.05,-9.727 -3.235,-2.016 -6.51,-3.926 -9.109,-5.324 3.524,-1.463 6.966,-2.903 10.336,-4.113 1.177,-3.549 2.397,-7.12 3.16,-10.354 1.62,3.183 3.833,6.256 6.016,9.073 3.518,0.205 7.062,0.532 10.556,0.788 -1.957,1.456 -4.201,3.918 -6.344,6.772 z m -2.295,-1.687 c 0.544,2.958 -1.296,5.774 -4.109,6.292 -2.813,0.517 -5.533,-1.463 -6.077,-4.42 -0.544,-2.959 1.296,-5.775 4.109,-6.293 2.813,-0.517 5.534,1.463 6.077,4.421 z"
       id="path6"
       inkscape:connector-curvature="0" /></g></svg>