<?xml version="1.0" encoding="UTF-8" standalone="no"?>
<svg
   xmlns:dc="http://purl.org/dc/elements/1.1/"
   xmlns:cc="http://creativecommons.org/ns#"
   xmlns:rdf="http://www.w3.org/1999/02/22-rdf-syntax-ns#"
   xmlns:svg="http://www.w3.org/2000/svg"
   xmlns="http://www.w3.org/2000/svg"
   xmlns:sodipodi="http://sodipodi.sourceforge.net/DTD/sodipodi-0.dtd"
   xmlns:inkscape="http://www.inkscape.org/namespaces/inkscape"
   version="1.1"
   x="0px"
   y="0px"
   viewBox="0 0 82.599998 82.900002"
   xml:space="preserve"
   id="svg2"
   inkscape:version="0.91 r13725"
   sodipodi:docname="noun_979938_cc.svg"
   width="82.599998"
   height="82.900002"><metadata
     id="metadata36"><rdf:RDF><cc:Work
         rdf:about=""><dc:format>image/svg+xml</dc:format><dc:type
           rdf:resource="http://purl.org/dc/dcmitype/StillImage" /><dc:title></dc:title></cc:Work></rdf:RDF></metadata><defs
     id="defs34" /><sodipodi:namedview
     pagecolor="#ffffff"
     bordercolor="#666666"
     borderopacity="1"
     objecttolerance="10"
     gridtolerance="10"
     guidetolerance="10"
     inkscape:pageopacity="0"
     inkscape:pageshadow="2"
     inkscape:window-width="1920"
     inkscape:window-height="1017"
     id="namedview32"
     showgrid="false"
     fit-margin-top="0"
     fit-margin-left="0"
     fit-margin-right="0"
     fit-margin-bottom="0"
     inkscape:zoom="1.888"
     inkscape:cx="40.6"
     inkscape:cy="26.3"
     inkscape:window-x="-8"
     inkscape:window-y="-8"
     inkscape:window-maximized="1"
     inkscape:current-layer="svg2" /><style
     type="text/css"
     id="style4">
	.st0{fill:#231F20;}
</style><g
     id="g6"
     transform="translate(-9.4,-5.9)"><path
       class="st0"
       d="m 54.5,26.8 c 1.4,-1.9 2.6,-3.3 2.6,-3.3 -1,0.6 -1.8,1.8 -2.6,3.3 z"
       id="path8"
       inkscape:connector-curvature="0"
       style="fill:#231f20" /><path
       class="st0"
       d="m 24.9,62.7 c 0,-0.1 0.1,-0.1 0.2,-0.2 C 25,61.7 24.9,61 25,60.4 c -4.9,-3 -8.2,-7.6 -10,-10.7 2.9,4.2 8.8,9.6 10,10.6 0,-0.1 0,-0.3 0.1,-0.4 -0.9,-0.6 -4.5,-3.3 -4.4,-10.1 0,-0.1 0.2,-2 1.1,-4.4 -0.4,-0.3 -0.7,-0.6 -1.1,-0.9 0,0 -3.7,-2.4 -5.1,-2.9 -0.9,-0.6 -4.7,-3.1 -6.2,-4.7 0.1,3.3 0.5,13.2 3.3,20.2 0,0 1.9,4.8 5.8,6.2 2,0.9 4.1,0.6 6.4,-0.6 z"
       id="path10"
       inkscape:connector-curvature="0"
       style="fill:#231f20" /><path
       class="st0"
       d="M 39.3,29.9 C 38.7,26.9 39,25 39,25 c -0.2,0.7 0.6,3.4 1.6,6.2 1.5,1.8 2.8,4 3.8,6.6 0,0 1.1,2.1 0.8,5 0.2,-0.1 0.4,-0.3 0.5,-0.5 0.4,-1.2 1,-2.7 1.9,-3.9 -0.1,-0.1 -0.1,-0.1 -0.2,-0.2 -1.5,-1.3 -2.2,-3.3 -2.2,-6 0,-0.1 0.1,-1 0.7,-2.3 -1.6,-2.5 -3.2,-4.5 -3.3,-4.5 -2.1,-3 -2.9,-5.7 -3.1,-6.6 -3.5,2.7 -3.2,6.7 -3.2,6.7 0,0.4 0,0.9 -0.1,1.4 1,1 2,1.9 3.1,3 z"
       id="path12"
       inkscape:connector-curvature="0"
       style="fill:#231f20" /><path
       class="st0"
       d="m 84.6,25.1 c -0.1,0 -0.1,-0.1 -0.2,-0.1 -0.1,0 -0.1,-0.1 -0.2,-0.2 0.1,-0.1 0.1,-0.1 0.2,-0.2 0,-0.1 0.1,-0.1 0.1,-0.2 1.6,-2.5 2,-5.4 2,-5.4 0.8,-5.6 -1.1,-11.3 -1.8,-13.1 -1.1,2.2 -5.6,4.9 -5.8,5 -6.8,3.8 -8.4,5.7 -8.4,5.7 -1.4,1.5 -1.6,3 -1.5,4.3 1.9,-0.6 4.2,-1.1 6.1,-1 0,0 0.2,0 0.6,0 1.2,-2.6 3,-4.8 4.3,-6.2 -1.1,1.5 -2.5,4 -3.6,6.1 1.6,-0.2 4.3,-0.8 7.3,-2.6 0.1,0 0.2,0 0.3,0 0.1,0 0.1,0.1 0.1,0.2 0,0.1 0,2.9 -0.8,6.3 0,0.1 0,0.2 -0.1,0.2 0,0.1 0,0.2 -0.1,0.3 -0.2,0.7 -0.4,1.4 -0.6,2.2 0,0.2 -0.1,0.3 -0.2,0.5 0,0.1 -0.1,0.3 -0.1,0.4 -0.3,0.9 -0.7,1.8 -1.2,2.6 1.7,0.5 3.2,1.4 4.2,2.1 -1.1,-0.6 -2.9,-1.2 -4.5,-1.6 -0.8,1.4 -1.9,2.8 -3.2,3.9 0,0 -1.4,1.1 -3.6,2.1 4.5,2.9 10.8,1.6 10.8,1.6 1.3,-0.3 2.3,-0.4 3.3,-0.4 2.1,0 3.3,0.5 4,0.9 C 91.2,31 87.3,27 84.6,25.1 Z"
       id="path14"
       inkscape:connector-curvature="0"
       style="fill:#231f20" /><path
       class="st0"
       d="m 70.1,55 c -1.8,-3 -3.8,-4.7 -5.5,-5.5 -0.9,0.5 -1.8,0.9 -2.8,1.3 -0.2,0.1 -2,0.8 -4.5,1.2 0.6,0.9 1.1,1.8 1.5,2.6 1.5,0.7 3.7,1.6 6.7,2.9 0,0 -3.6,-1 -6.3,-2.2 1.8,3.6 2.8,6.7 3.2,9.1 4.4,0.5 11.2,-2.2 13,-2.9 -3.5,-2.1 -5.2,-6.4 -5.3,-6.5 z"
       id="path16"
       inkscape:connector-curvature="0"
       style="fill:#231f20" /><path
       class="st0"
       d="m 30.3,37.6 c 1.4,-0.5 3.1,-1.2 4.6,-1.9 0.1,0 0.2,-0.1 0.2,-0.1 0.1,0 0.2,-0.1 0.3,-0.1 0.2,-0.1 0.4,-0.2 0.5,-0.3 0.1,-0.1 0.3,-0.1 0.4,-0.2 1.5,-0.8 2.7,-1.5 2.8,-2 0,-0.1 0.1,-0.2 0.2,-0.2 0.1,0 0.2,0 0.3,0.1 0,0.1 2.5,5.2 0.8,11.7 0,0.1 0,0.2 -0.1,0.3 0,0.1 0,0.2 -0.1,0.2 -0.2,0.5 -0.3,1 -0.5,1.6 0,0 -0.9,2.7 -3.3,5.6 1.6,-0.7 2.9,-1.5 3,-1.6 1.5,-1 2.6,-2.1 3.3,-3.2 0.4,-0.6 0.8,-1.2 1,-1.7 0.3,-0.6 0.5,-1.2 0.6,-1.7 0,-0.1 0.1,-0.2 0.1,-0.4 0,-0.1 0,-0.2 0.1,-0.4 C 45,40.3 43.9,38.1 43.8,38 43,36 42,34.2 40.9,32.7 40.4,32 39.9,31.4 39.4,30.8 38.3,29.5 37.1,28.5 36,27.6 c -0.1,-0.1 -0.2,-0.1 -0.2,-0.2 -0.1,-0.1 -0.2,-0.1 -0.2,-0.2 -2.3,-1.7 -4.4,-2.5 -5.4,-2.9 3.5,6.2 1.1,11.5 0.1,13.3 z"
       id="path18"
       inkscape:connector-curvature="0"
       style="fill:#231f20" /><path
       class="st0"
       d="m 64.1,30.7 c 0,0 -0.5,2.5 -2.3,4.8 1,1.6 2.1,1.8 2.1,1.8 3.3,0.8 6.8,-0.1 9.4,-1.2 0.1,0 0.2,-0.1 0.3,-0.1 0.1,0 0.2,-0.1 0.3,-0.1 2.2,-1 3.7,-2.1 3.7,-2.1 1.2,-1 2.2,-2.3 3,-3.7 0.1,-0.2 0.2,-0.3 0.3,-0.5 0.4,-0.7 0.7,-1.4 1,-2.1 0,-0.1 0.1,-0.2 0.1,-0.3 0.1,-0.1 0.1,-0.3 0.1,-0.4 0.4,-1 0.6,-2 0.9,-2.9 0,-0.1 0,-0.2 0.1,-0.3 0,-0.1 0,-0.2 0.1,-0.2 0.6,-2.6 0.7,-4.7 0.7,-5.6 -3.2,1.8 -6,2.4 -7.4,2.5 -0.3,0 -0.5,0 -0.7,0 -0.2,0 -0.4,0 -0.4,0 -0.2,0 -0.4,0 -0.6,0 -1.7,0 -3.7,0.5 -5.4,1 -0.1,0 -0.2,0.1 -0.3,0.1 -0.1,0 -0.2,0 -0.2,0.1 -1.6,0.5 -2.8,1 -2.8,1 -0.3,0.1 -0.7,0.3 -1,0.5 0,2.7 -0.2,5.5 -1,7.7 z m 7.7,-4 c 0,0 0,0 0,0 0,0 0,0 0,0 0.1,0 0.2,-0.1 0.3,-0.1 0.1,0 0.1,0 0.2,-0.1 0,0 0.1,0 0.1,0 0.1,0 0.2,-0.1 0.3,-0.1 1.5,-0.4 2.6,-0.7 2.6,-0.7 -0.4,0.3 -1.3,0.6 -2.5,1.1 -0.1,0 -0.2,0.1 -0.3,0.1 -0.1,0 -0.1,0 -0.2,0.1 0,0 -0.1,0 -0.1,0 -0.1,0 -0.2,0.1 -0.4,0.1 -0.1,0 -0.2,0.1 -0.4,0.1 -3,1 -6.6,2.1 -6.6,2.1 1.8,-1 4.7,-1.9 7,-2.6 z"
       id="path20"
       inkscape:connector-curvature="0"
       style="fill:#231f20" /><path
       class="st0"
       d="m 47.6,38 c 0.1,0.1 0.1,0.1 0.2,0.1 0.2,-0.3 0.5,-0.5 0.7,-0.7 0.1,-0.1 0.2,-0.1 0.2,-0.2 0.1,-0.1 0.2,-0.1 0.2,-0.2 0.4,-0.3 0.8,-0.5 1.2,-0.6 0.1,0 5.8,-2.4 10.5,-0.5 0.1,-0.1 0.3,-0.3 0.4,-0.4 0.1,-0.1 0.1,-0.2 0.2,-0.2 0.1,-0.1 0.1,-0.2 0.2,-0.2 1.7,-2.2 2.1,-4.4 2.1,-4.5 0.8,-2.1 1,-4.7 0.9,-7.2 0,-0.1 0,-0.2 0,-0.3 0,-0.1 0,-0.2 0,-0.3 -0.2,-3.9 -1.1,-7.6 -1.5,-9.1 -1.6,2.8 -9.6,8.6 -10.6,9.4 -3.4,2.3 -5.1,5.1 -5.9,7.1 0,0.1 -0.1,0.2 -0.1,0.3 0,0.1 -0.1,0.2 -0.1,0.3 -0.4,1.1 -0.5,1.7 -0.5,1.8 -0.1,2.4 0.6,4.3 1.9,5.4 z m 6.9,-11.2 c 0.8,-1.4 1.7,-2.6 2.6,-3.3 0,0 -1.3,1.4 -2.6,3.3 -2.2,3.9 -3.7,9.3 -3.7,9.3 -0.7,-2.6 1.6,-6.5 3.7,-9.3 z"
       id="path22"
       inkscape:connector-curvature="0"
       style="fill:#231f20" /><path
       class="st0"
       d="m 63,37.9 c -0.6,-0.6 -1.3,-1 -2.1,-1.4 -0.1,0 -0.2,-0.1 -0.2,-0.1 -0.1,0 -0.2,-0.1 -0.3,-0.1 -4.5,-1.8 -9.9,0.5 -10,0.5 -0.5,0.2 -1,0.5 -1.4,0.8 -0.1,0.1 -0.2,0.2 -0.3,0.2 -0.1,0.1 -0.2,0.2 -0.3,0.3 -0.1,0.1 -0.2,0.2 -0.3,0.3 -0.1,0.1 -0.1,0.1 -0.2,0.2 -0.1,0.1 -0.1,0.1 -0.1,0.2 -0.6,0.9 -1.1,1.9 -1.5,2.8 -0.1,0.2 -0.1,0.4 -0.2,0.5 -0.1,0.2 -0.1,0.3 -0.2,0.5 -0.3,1 -0.4,1.7 -0.5,1.8 0,0.1 -0.1,0.2 -0.2,0.2 -0.2,0.1 -0.9,0.4 -1,0.8 0,0.1 -0.1,0.3 -0.2,0.4 -0.2,0.3 -0.4,0.7 -0.6,1.1 l 0,0 1.8,-1 c 0,0 0.1,0 0.1,0 0,0 0.1,0 0.1,0 0.1,0 0.1,0.1 0.1,0.2 0.1,0.2 0.1,0.4 0.2,0.6 4.9,-1 8,1.3 9.5,2.8 0.1,0.1 0.1,0.1 0.2,0.2 0.1,0.1 0.1,0.1 0.2,0.2 0.4,0.4 0.6,0.8 0.6,0.8 0.2,0.3 0.3,0.5 0.5,0.8 2.6,-0.4 4.6,-1.1 4.6,-1.2 0.9,-0.4 1.7,-0.7 2.5,-1.1 0.1,0 0.2,-0.1 0.3,-0.1 0.1,-0.1 0.2,-0.1 0.3,-0.2 5.1,-2.8 8.5,-6.4 9.7,-7.8 -3.5,0.5 -10.8,-3 -11.1,-3.2 0,0 0,0 0,0 z m -17.3,7.7 c 5,-5.6 14.6,-4.5 14.6,-4.5 -8.8,0.1 -14.6,4.5 -14.6,4.5 z"
       id="path24"
       inkscape:connector-curvature="0"
       style="fill:#231f20" /><path
       class="st0"
       d="m 61.9,64.7 c 0,-0.1 0,-0.2 -0.1,-0.3 C 61.3,62 60.3,58.7 58.4,55 58.3,54.7 58.1,54.5 58,54.3 57.6,53.6 57.1,52.8 56.7,52 56.6,51.9 56.6,51.8 56.5,51.8 56.4,51.7 56.4,51.6 56.3,51.6 56.2,51.4 56.1,51.2 55.9,51 55.9,50.9 55.7,50.7 55.3,50.3 55.2,50.2 55.2,50.2 55.1,50.1 55,50 55,50 54.9,49.9 53.6,48.5 50.7,46.4 46,47.3 c -0.1,0 -0.2,0 -0.3,0 -0.1,0 -0.2,0 -0.3,0 -0.5,0.1 -1,0.3 -1.6,0.5 0,0 -2.7,1.2 -3.9,4.1 0,0 0,0.1 0,0.1 -0.1,0.2 -0.3,0.5 -1.5,0.7 0,0 -1.4,0.5 -2.3,1.7 0,0 -0.1,0.1 -0.1,0.1 l -2.2,0.8 -6.2,10.1 c -0.2,0.2 -0.4,0.2 -0.4,0.2 -0.3,-0.1 -0.6,-0.8 -0.8,-2.1 0,-0.1 0,-0.2 -0.1,-0.3 0,-0.1 0,-0.2 -0.1,-0.3 0,-0.2 -0.1,-0.5 -0.1,-0.8 -0.5,-2.3 0.8,-3.6 1.5,-4.1 0.1,-0.1 0.2,-0.1 0.3,-0.2 0.1,0 0.1,-0.1 0.1,-0.1 0,0 0.1,0 0.1,-0.1 2.7,-1.1 4.8,-2.7 6.4,-4.3 0.1,-0.1 0.2,-0.2 0.4,-0.4 0.1,-0.1 0.3,-0.3 0.4,-0.4 2.8,-3.1 3.8,-6.1 3.8,-6.1 0.2,-0.5 0.4,-1 0.5,-1.5 0,-0.1 0,-0.2 0.1,-0.2 0,-0.1 0.1,-0.2 0.1,-0.3 1.4,-5.2 0,-9.5 -0.6,-10.9 -0.5,0.6 -1.5,1.2 -2.8,1.8 -0.1,0.1 -0.3,0.1 -0.4,0.2 -0.2,0.1 -0.5,0.2 -0.7,0.3 -0.1,0 -0.2,0.1 -0.3,0.1 -0.1,0 -0.2,0.1 -0.2,0.1 -2,0.9 -4.1,1.7 -4.8,1.9 -0.1,0 -0.2,0.1 -0.3,0.1 -0.2,0 -0.3,0.1 -0.5,0.2 -0.2,0.1 -0.3,0.1 -0.5,0.2 -3.5,1.3 -5.4,4.2 -6.4,6.8 0,0.1 -0.1,0.2 -0.1,0.2 0,0.1 -0.1,0.2 -0.1,0.2 -0.9,2.2 -1,4.1 -1,4.1 -0.1,6.5 3.4,9.2 4.2,9.7 -0.5,-4.1 -0.3,-7.3 0.5,-9.8 0,-0.1 0.1,-0.2 0.1,-0.3 0,-0.1 0.1,-0.2 0.1,-0.3 0.2,-0.7 0.5,-1.3 0.7,-1.8 0.1,-0.1 0.1,-0.2 0.2,-0.3 0.1,-0.1 0.1,-0.2 0.2,-0.3 2.4,-4.5 6.1,-5.7 6.1,-5.7 -2.9,1.5 -4.7,3.9 -5.9,6.4 -0.1,0.1 -0.1,0.2 -0.1,0.3 0,0.1 -0.1,0.2 -0.1,0.3 -0.2,0.6 -0.4,1.1 -0.6,1.7 0,0.1 -0.1,0.2 -0.1,0.3 0,0.1 -0.1,0.2 -0.1,0.3 -1.1,4.1 -0.9,8.1 -0.8,9.2 0.1,0.1 0.1,0.1 0.1,0.1 0.1,0 0.1,0.1 0.1,0.2 0,0.1 0,0.2 -0.1,0.2 -0.2,0.3 -0.2,1.2 0,2.4 0,0.1 0,0.2 0,0.2 0,0.1 0,0.2 0,0.3 0.2,1.4 0.6,2.9 0.9,4.1 0,0.1 0,0.2 0,0.2 -2.1,2.7 -5.7,15.9 -6.1,17.3 l 1.7,2 C 22,82.6 23.5,76.9 25,73 c 0.1,-0.4 0.2,-0.8 0.4,-1.1 0.1,-0.3 0.3,-0.6 0.5,-0.9 0.8,-1.7 1.6,-2.7 1.6,-2.8 0.8,-1.8 2.2,-1.4 2.2,-1.4 0.3,0.1 1,0.3 1.1,0.7 0,0.4 -0.4,0.6 -0.7,0.7 0,0 -2.3,0.9 -3.7,3 -0.3,0.6 -0.6,1.2 -0.8,1.9 0,0 0,0 0,0 -0.3,1.4 -0.2,3 0.5,4.7 0,0.1 1.6,5.7 11.6,7.5 0.3,0 5.9,1.1 8.1,3.5 -0.3,-2.2 -1,-7.1 -0.6,-10.3 0,-0.1 -0.6,-10.1 -5.2,-12.2 -0.2,-0.1 -4.1,-2.7 -7.7,0.4 0,0.1 -0.1,0.2 -0.2,0.3 -0.3,0.2 -0.8,0.1 -1.5,-0.3 -0.1,0 -1.2,-0.3 -1.5,-0.9 -0.1,-0.2 -0.1,-0.5 0,-0.8 0.2,-0.4 5.4,-9.3 8.7,-11.2 0.1,-0.1 0.4,-0.2 0.6,0 0.2,0.2 0.4,0.6 -0.6,3 0,0 0,0 0,0 0,0 -0.5,3.1 1.3,5.6 1.2,1.6 3.1,2.7 5.7,3 0,0 3.2,0 6,0 1.5,0 2.9,0 3.7,0 0.2,0 4.7,0.4 7.7,3.3 0,-0.7 0,-2.1 -0.3,-4 0,0.2 0,0.1 0,0 z M 41,81.8 c 0,0 -5.1,-12.9 -9.7,-13.9 0,0 4.8,-0.9 9.7,13.9 z M 38.4,53.9 c 8.1,-3.2 12.1,1.5 12.1,1.5 -5.6,-3.7 -12.1,-1.5 -12.1,-1.5 z"
       id="path26"
       inkscape:connector-curvature="0"
       style="fill:#231f20" /></g></svg>