<svg version="1" xmlns="http://www.w3.org/2000/svg" width="968" height="968" viewBox="0 0 726.000000 726.000000"><path d="M689 51.4c-66.6 18.7-128.8 50.1-179.5 90.9-55.3 44.5-97.7 101.2-117.5 157.2-4.1 11.8-3.7 16.1 2.5 22.2 4.3 4.3 6.1 4.9 13.5 4.3 1.4-.1 7.9-2.9 14.4-6.2 31-15.7 61-22.8 95.9-22.8 30.9 0 54.9 4.9 82.7 16.7 17.1 7.4 20.5 6.6 33-7.2 42.9-47.6 75.4-107.7 87-161.1 3.6-17 5-29.3 5-46.9 0-23.4-2.7-40.2-7.4-45.3-5.5-6.2-12.5-6.6-29.6-1.8zM10.6 111c-1.6.5-4 1.9-5.3 3.2-4.5 4.2-5.3 6.9-5.3 19 .1 56.5 30.4 118.4 78.9 161.2 17.2 15.2 19.4 16.6 26 16.6 5.5 0 6.3-.3 17.2-7.6 48.5-32.3 108.1-42.3 165.4-27.8 14.5 3.7 27.1 8.6 43.4 17 15.5 8 18 8.5 24.8 5.5 5.2-2.4 6.1-3.8 11.8-18.6 5.6-14.5 5.7-18.8.5-26.3-49.9-71.1-140.9-119.4-256.5-136.1-21.2-3.1-42.6-5-68-6.1-26.7-1.1-29-1.1-32.9 0z"/><path d="M210.4 300.5c-34.2 5-66.6 20.5-92.2 44.1-69.1 63.6-74.7 170.8-12.7 241.7 23.7 27.2 58.2 47.5 92.8 54.7 38.3 8 77.3 3.5 111-12.9 16-7.8 21.2-11.4 23.7-16.7 2.9-5.9 2.4-9.6-3-21.5-4.1-9.1-11-28.7-11-31.3 0-1.1-14.4-4.6-18.7-4.6-.7 0-6.3 4.5-12.5 10-15.1 13.4-20.7 14.8-28.8 7.1-5.5-5.2-5.8-8.4-2.5-24.3 1.5-7.3 2.4-13.4 1.9-13.6-.5-.1-7.6-4.2-15.9-9-10.4-6.1-15.7-9.8-17.2-12.1-4.3-6.4-2.3-16.4 4.1-20.6 1.3-.9 7.5-3 13.8-4.7 6.2-1.6 11.4-3.1 11.5-3.2.2-.2 1.5-6.1 2.9-13.2s3.2-14.1 4-15.5c1.9-3.9 6.9-7.7 10.9-8.5 7-1.3 10.4 1.2 25.8 18.5l4.8 5.4 5.5-1.2c3-.7 5.7-1.8 5.8-2.4.2-.7 1.7-6.8 3.3-13.7 6.7-27.9 20.1-55.5 37.9-78.3 11.4-14.5 8-22.6-17.4-41.7-23.3-17.5-49.1-28.2-78.3-32.5-12.8-1.8-36.7-1.8-49.5 0z"/><path d="M504.5 330.6c-1.6.2-7 .9-12 1.5-12.7 1.6-31.6 7-44.2 12.7-52.2 23.3-88.1 67.9-100 124.1-2.4 11.3-2.7 14.7-2.7 33.6-.1 15.8.4 23.3 1.7 30.5 13.1 71.2 65.4 124.9 136.3 140.2 9.8 2.1 13.4 2.3 34.9 2.3 21.1-.1 25.2-.3 34-2.3 16.4-3.6 29.2-8.2 43.5-15.4 47.5-23.9 80.7-67.1 91.6-119.2 3.1-15.1 4.3-40.4 2.5-55.2-6.4-52-34.6-97.4-78.1-125.6-20.1-13.1-41.5-21.3-66-25.4-8.4-1.4-35.7-2.6-41.5-1.8zm-.7 64.2c2.3 1.5 7.3 4.8 11 7.5l6.8 4.7 13.8-7.1c12.2-6.2 14.3-7 17.5-6.4 4.9.9 8.3 3.1 10.9 6.9 2.8 4 2.8 9.1.3 24.6-1.5 8.6-1.6 11.7-.8 12.2 5.2 3 19.3 14.2 20.8 16.5 1.2 1.8 1.9 4.6 1.9 8 0 4.7-.4 5.8-3.6 9.3-4.1 4.6-5.4 5-24.4 8-7.4 1.1-14.4 2.4-15.4 2.9-1.6.6-2.3 3.1-4.1 13.9-1.3 7.2-3 14.3-3.9 15.7-4.9 7.4-16.1 8.9-22.7 2.9-1.1-1-5.2-7.8-9-15l-7-13.2-6.2-1.1c-3.4-.6-9.6-1.5-13.7-2.1-13.4-2-18.9-6.2-19.8-15-.4-4.9 1.1-9.1 4.4-12.2 1.1-.9 6.9-4.2 12.9-7.4 6.1-3.1 11.2-5.9 11.4-6 .2-.2-.9-7.9-2.4-17.1-3.2-20.1-3-24.1 1.6-28.9 5.8-6 11.9-6.4 19.7-1.6z"/></svg>